<svg width="36" height="48" viewBox="0 0 36 48" fill="none" xmlns="http://www.w3.org/2000/svg">
<path d="M18 28.8632C16.1571 28.8632 14.6143 28.2123 13.3714 26.9105C12.1286 25.6088 11.5071 24.0281 11.5071 22.1684V6.31579C11.5071 4.56139 12.138 3.07017 13.3998 1.84213C14.6615 0.614042 16.1937 0 17.9962 0C19.7987 0 21.3321 0.614042 22.5964 1.84213C23.8607 3.07017 24.4929 4.56139 24.4929 6.31579V22.1684C24.4929 24.0281 23.8714 25.6088 22.6286 26.9105C21.3857 28.2123 19.8429 28.8632 18 28.8632ZM16.0714 48V39.4105C11.5286 38.9474 7.71428 37.0737 4.62857 33.7895C1.54286 30.5053 0 26.6316 0 22.1684H3.85714C3.85714 26 5.23474 29.2211 7.98994 31.8316C10.7451 34.4421 14.0773 35.7474 17.9864 35.7474C21.8955 35.7474 25.2321 34.4421 27.9964 31.8316C30.7607 29.2211 32.1429 26 32.1429 22.1684H36C36 26.6316 34.4571 30.5053 31.3714 33.7895C28.2857 37.0737 24.4714 38.9474 19.9286 39.4105V48H16.0714ZM18 25.0737C18.7714 25.0737 19.4036 24.7895 19.8964 24.2211C20.3893 23.6526 20.6357 22.9684 20.6357 22.1684V6.31579C20.6357 5.6 20.3831 5 19.8779 4.51579C19.3728 4.03158 18.7468 3.78947 18 3.78947C17.2532 3.78947 16.6272 4.03158 16.1221 4.51579C15.6169 5 15.3643 5.6 15.3643 6.31579V22.1684C15.3643 22.9684 15.6107 23.6526 16.1036 24.2211C16.5964 24.7895 17.2286 25.0737 18 25.0737Z" fill="url(#paint0_linear_84_1409)"/>
<defs>
<linearGradient id="paint0_linear_84_1409" x1="18" y1="0" x2="18" y2="48" gradientUnits="userSpaceOnUse">
<stop stop-color="#51FF82"/>
<stop offset="1" stop-color="#0BD1FD"/>
</linearGradient>
</defs>
</svg>
